HIERARCHY
ROOT joint_Root
{
	OFFSET 0.0 0.0 0.0
	CHANNELS 6 Xposition Yposition Zposition Zrotation Xrotation Yrotation 
	JOINT Hips
	{
		OFFSET -0.726466 93.3139 -2.00062
		CHANNELS 6 Xposition Yposition Zposition Zrotation Xrotation Yrotation 
		JOINT Spine
		{
			OFFSET 15.7357 0.0 0.0
			CHANNELS 6 Xposition Yposition Zposition Zrotation Xrotation Yrotation 
			JOINT Chest
			{
				OFFSET 8.98455 -0.406207 0.0
				CHANNELS 6 Xposition Yposition Zposition Zrotation Xrotation Yrotation 
				JOINT Neck
				{
					OFFSET 16.3773 0.0 0.0
					CHANNELS 6 Xposition Yposition Zposition Zrotation Xrotation Yrotation 
					JOINT Head
					{
						OFFSET 6.45672 0.0 0.0
						CHANNELS 6 Xposition Yposition Zposition Zrotation Xrotation Yrotation 
						End Site
						{
							OFFSET 0.0 0.0 0.0
						}
					}
				}
				JOINT Shoulder_L
				{
					OFFSET 12.9942 -0.242716 4.98039
					CHANNELS 6 Xposition Yposition Zposition Zrotation Xrotation Yrotation 
					JOINT UpperArm_L
					{
						OFFSET 5.34809 0.0 0.0
						CHANNELS 6 Xposition Yposition Zposition Zrotation Xrotation Yrotation 
						JOINT LowerArm_L
						{
							OFFSET 24.3286 1.87007e-05 0.0
							CHANNELS 6 Xposition Yposition Zposition Zrotation Xrotation Yrotation 
							JOINT Hand_L
							{
								OFFSET 22.2916 0.0 0.0
								CHANNELS 6 Xposition Yposition Zposition Zrotation Xrotation Yrotation 
								End Site
								{
									OFFSET 0.0 0.0 0.0
								}
							}
						}
					}
				}
				JOINT Shoulder_R
				{
					OFFSET 12.9945 -0.242716 -4.98039
					CHANNELS 6 Xposition Yposition Zposition Zrotation Xrotation Yrotation 
					JOINT UpperArm_R
					{
						OFFSET -5.34813 0.0 0.0
						CHANNELS 6 Xposition Yposition Zposition Zrotation Xrotation Yrotation 
						JOINT LowerArm_R
						{
							OFFSET -24.3289 0.000322201 0.0
							CHANNELS 6 Xposition Yposition Zposition Zrotation Xrotation Yrotation 
							JOINT Hand_R
							{
								OFFSET -22.2915 -0.000108084 0.0
								CHANNELS 6 Xposition Yposition Zposition Zrotation Xrotation Yrotation 
								End Site
								{
									OFFSET 0.0 0.0 0.0
								}
							}
						}
					}
				}
			}
		}
		JOINT UpperLeg_L
		{
			OFFSET -2.19248 -6.46944 0.0
			CHANNELS 6 Xposition Yposition Zposition Zrotation Xrotation Yrotation 
			JOINT LowerLeg_L
			{
				OFFSET 39.0811 0.0 -1.23785e-05
				CHANNELS 6 Xposition Yposition Zposition Zrotation Xrotation Yrotation 
				JOINT Foot_L
				{
					OFFSET 40.9854 0.0 -1.26872e-05
					CHANNELS 6 Xposition Yposition Zposition Zrotation Xrotation Yrotation 
					JOINT Toes_L
					{
						OFFSET 11.7543 0.0 0.0
						CHANNELS 6 Xposition Yposition Zposition Zrotation Xrotation Yrotation 
						End Site
						{
							OFFSET 0.0 0.0 0.0
						}
					}
				}
			}
		}
		JOINT UpperLeg_R
		{
			OFFSET -2.19251 6.46944 0.0
			CHANNELS 6 Xposition Yposition Zposition Zrotation Xrotation Yrotation 
			JOINT LowerLeg_R
			{
				OFFSET -39.0811 -0.00228153 -0.0401928
				CHANNELS 6 Xposition Yposition Zposition Zrotation Xrotation Yrotation 
				JOINT Foot_R
				{
					OFFSET -40.9854 0.0 0.0
					CHANNELS 6 Xposition Yposition Zposition Zrotation Xrotation Yrotation 
					JOINT Toes_R
					{
						OFFSET -11.7543 0.0 0.0
						CHANNELS 6 Xposition Yposition Zposition Zrotation Xrotation Yrotation 
						End Site
						{
							OFFSET 0.0 0.0 0.0
						}
					}
				}
			}
		}
	}
}
MOTION
Frames:	4
Frame Time:	0.0333333
0.000000 0.000000 0.000000 0.000000 0.000000 -0.000000 -1.208910 88.041200 -458.313000 86.468400 4.045170 -12.711500 15.735700 0.000005 -0.000001 71.303800 80.218900 -68.064100 8.984550 -0.406207 -0.000000 10.993400 -6.133550 7.072240 16.377300 -0.000001 -0.000001 2.352560 -0.950442 -2.390840 6.456720 -0.000001 -0.000000 -5.335990 4.301850 -0.877599 12.994200 -0.242716 4.980390 -87.716500 -7.420670 -72.840700 5.348090 -0.000007 -0.000001 -67.238300 21.630600 -11.793300 24.328600 0.000019 0.000005 -8.738130 -3.326410 -69.314100 22.291600 -0.000001 0.000005 -0.562899 5.612080 -12.091000 12.994500 -0.242716 -4.980390 89.836200 0.376183 -66.455100 -5.348130 -0.000001 -0.000004 -64.545200 19.545600 6.234880 -24.328900 0.000322 -0.000009 -7.679590 -6.751170 -48.912900 -22.291500 -0.000108 -0.000004 -1.935710 5.541470 -8.307920 -2.192480 -6.469440 -0.000000 -170.558000 3.480480 -4.204700 39.081100 -0.000007 -0.000012 0.036877 -0.020830 60.534700 40.985400 -0.000006 -0.000013 -1.193840 -2.388560 -37.285400 11.754300 -0.000000 0.000003 -0.006445 -0.074830 -19.622600 -2.192510 6.469440 -0.000001 -169.862000 11.795400 140.653000 -39.081100 -0.002282 -0.040193 0.051402 -0.051850 42.870000 -40.985400 0.000008 0.000006 3.452190 -7.557510 -67.630200 -11.754300 -0.000006 -0.000006 -0.020936 -0.172419 -23.619300
0.000000 0.000000 0.000000 0.000000 0.000000 -0.000000 -1.420980 84.958900 -452.697000 83.482000 1.386140 -9.241710 15.735700 0.000005 -0.000001 81.061500 79.318900 -77.009800 8.984550 -0.406207 -0.000000 13.474200 -3.081910 8.470750 16.377300 -0.000001 -0.000001 1.621640 -0.373367 -2.132740 6.456720 -0.000001 -0.000000 -5.332990 3.455210 -1.798030 12.994200 -0.242716 4.980390 -88.139300 -5.732660 -71.981200 5.348090 -0.000007 -0.000001 -69.849300 22.912200 -7.515780 24.328600 0.000019 0.000005 -6.449760 -3.459460 -61.889300 22.291600 -0.000001 0.000005 -1.032620 5.608500 -11.864200 12.994500 -0.242716 -4.980390 89.482200 1.278040 -67.934900 -5.348130 -0.000001 -0.000004 -61.590300 20.213800 -1.383660 -24.328900 0.000322 -0.000009 -10.051600 -8.942070 -48.750800 -22.291500 -0.000108 -0.000004 -0.114210 5.552480 -8.818680 -2.192480 -6.469440 -0.000000 -169.880000 3.522640 -9.450850 39.081100 -0.000007 -0.000012 -0.027603 0.004048 81.672500 40.985400 -0.000006 -0.000013 -2.696480 0.467655 -38.556800 11.754300 -0.000000 0.000003 -0.006420 -0.074617 -19.613900 -2.192510 6.469440 -0.000001 -168.292000 8.718290 142.785000 -39.081100 -0.002282 -0.040193 0.118410 -0.084721 53.662900 -40.985400 0.000008 0.000006 5.247480 -9.099070 -73.957300 -11.754300 -0.000006 -0.000006 -0.009599 -0.100620 -20.672200
0.000000 0.000000 0.000000 0.000000 0.000000 -0.000000 -1.561940 82.521000 -447.520000 82.388900 -0.132006 -7.898890 15.735700 0.000005 -0.000001 85.319400 78.892300 -81.024700 8.984550 -0.406207 -0.000000 14.452300 -1.540200 8.789530 16.377300 -0.000001 -0.000001 1.528380 -0.018346 -1.738410 6.456720 -0.000001 -0.000000 -4.909260 2.591530 -1.967890 12.994200 -0.242716 4.980390 -88.464400 -4.458810 -70.973200 5.348090 -0.000007 -0.000001 -71.881300 24.621900 -3.343700 24.328600 0.000019 0.000005 -4.168860 -3.248930 -52.112600 22.291600 -0.000001 0.000005 -2.006150 5.599440 -11.296700 12.994500 -0.242716 -4.980390 89.159000 2.221630 -69.256800 -5.348130 -0.000001 -0.000004 -56.909600 22.108500 -12.297700 -24.328900 0.000322 -0.000009 -11.328400 -10.374900 -48.043400 -22.291500 -0.000108 -0.000004 1.064400 5.557960 -9.089500 -2.192480 -6.469440 -0.000000 -170.936000 3.445080 -19.140500 39.081100 -0.000007 -0.000012 -0.223299 -0.040336 100.242000 40.985400 -0.000006 -0.000013 -0.475602 1.138120 -39.281100 11.754300 -0.000000 0.000003 -0.007240 -0.081721 -19.903900 -2.192510 6.469440 -0.000001 -167.984000 7.662500 145.216000 -39.081100 -0.002282 -0.040193 0.148706 -0.083316 60.204900 -40.985400 0.000008 0.000006 4.244320 -9.627040 -81.098500 -11.754300 -0.000006 -0.000006 -0.006572 -0.075944 -19.664400
0.000000 0.000000 0.000000 0.000000 0.000000 -0.000000 -1.447950 81.021000 -442.425000 83.138000 -1.968430 -7.409110 15.735700 0.000005 -0.000001 88.839200 78.793300 -85.047500 8.984550 -0.406207 -0.000000 14.661600 -0.220418 7.616210 16.377300 -0.000001 -0.000001 1.787570 0.075409 -1.194390 6.456720 -0.000001 -0.000000 -4.265100 1.562550 -2.284450 12.994200 -0.242716 4.980390 -88.442200 -4.291680 -70.028300 5.348090 -0.000007 -0.000001 -74.051200 26.721800 0.894929 24.328600 0.000019 0.000005 -1.151100 -1.249290 -42.545600 22.291600 -0.000001 0.000005 -4.787560 5.580310 -10.202500 12.994500 -0.242716 -4.980390 89.030600 2.713650 -70.332900 -5.348130 -0.000001 -0.000004 -51.076700 23.396800 -23.670800 -24.328900 0.000322 -0.000009 -11.010000 -9.552930 -49.533400 -22.291500 -0.000108 -0.000004 1.275040 5.566610 -9.515350 -2.192480 -6.469440 -0.000000 -173.628000 1.447980 -30.507900 39.081100 -0.000007 -0.000012 -0.381876 -0.162874 113.100000 40.985400 -0.000006 -0.000013 2.337360 -0.594706 -39.886300 11.754300 -0.000000 0.000003 -0.007436 -0.083376 -19.971400 -2.192510 6.469440 -0.000001 -169.792000 7.196810 148.427000 -39.081100 -0.002282 -0.040193 0.142352 -0.069303 63.528800 -40.985400 0.000008 0.000006 3.125230 -8.890590 -86.257300 -11.754300 -0.000006 -0.000006 -0.469146 -0.583653 -19.625100
